<?xml version="1.0" standalone="no"?>
<!DOCTYPE svg PUBLIC "-//W3C//DTD SVG 20010904//EN"
 "http://www.w3.org/TR/2001/REC-SVG-20010904/DTD/svg10.dtd">
<svg version="1.0" xmlns="http://www.w3.org/2000/svg"
 width="192.000000pt" height="192.000000pt" viewBox="0 0 192.000000 192.000000"
 preserveAspectRatio="xMidYMid meet">
<metadata>
Created by potrace 1.11, written by Peter Selinger 2001-2013
</metadata>
<g transform="translate(0.000000,192.000000) scale(0.100000,-0.100000)"
fill="#000000" stroke="none">
<path d="M1190 1913 c-61 -10 -160 -48 -221 -83 -186 -110 -306 -316 -308
-532 -1 -37 -2 -38 -38 -38 -21 0 -66 -5 -101 -10 -206 -34 -390 -182 -471
-379 -40 -96 -50 -157 -46 -271 5 -144 50 -261 144 -373 128 -153 302 -229
511 -222 313 11 569 257 596 571 4 44 7 80 9 82 1 1 22 3 46 3 168 4 342 89
458 222 167 193 196 492 71 712 -87 151 -236 266 -395 305 -51 12 -210 21
-255 13z"/>
</g>
</svg>
